PathFileType	4	(X/Y/Z)	C:/Users/beibeiliu/ov580/test_trc/capture2\sequence.9_training_dense_left.trc
DataRate	CameraRate	NumFrames	NumMarkers	Units	OrigDataRate	OrigDataStartFrame	OrigNumFrames
120	120	7	19	mm	120	145	384
Frame#	Time	ThumbCMC			ThumbMCP			ThumbIP			ThumbTip			IndexMCP			IndexPIP			IndexTip			MiddleMCP			MiddlePIP			MiddleTip			RingMCP			RingPIP			RingTip			PinkyMCP			PinkyPIP			PinkyTip			BackHand1			BackHand2			BackHand3	
		X0	Y0	Z0	X1	Y1	Z1	X2	Y2	Z2	X3	Y3	Z3	X4	Y4	Z4	X5	Y5	Z5	X6	Y6	Z6	X7	Y7	Z7	X8	Y8	Z8	X9	Y9	Z9	X10	Y10	Z10	X11	Y11	Z11	X12	Y12	Z12	X13	Y13	Z13	X14	Y14	Z14	X15	Y15	Z15	X16	Y16	Z16	X17	Y17	Z17	X18	Y18	Z18	
144	1.2	-75.7577	71.7702	-15.6747	-52.1069	87.1283	-18.06	-32.9026	104.427	-19.7871	-15.5137	121.538	-22.9262	-66.8686	142.257	-45.1357	-59.5704	163.777	-57.8475	-58.4333	188.804	-69.1608	-83.9888	153.327	-54.6276	-76.6235	172.172	-66.8809	-65.4667	199.753	-79.6663	-96.2456	152.473	-64.1617	-92.3388	166.807	-73.3239	-83.9469	194.581	-83.4492	-114.771	136.699	-67.2045	-107.115	157.923	-76.6006	-103.51	177.935	-78.2915	-118.222	114.316	-33.498	-132.492	91.4414	-19.6804	-96.3359	99.3463	-16.5417	
145	1.20833	-77.3022	72.8819	-15.8181	-56.8155	82.7882	-22.6503	-34.8349	99.6219	-23.3829	-17.1779	111.424	-23.2689	-66.6625	141.438	-49.7649	-60.7959	157.686	-61.0802	-57.5065	178.575	-73.0697	-82.621	148.265	-57.9184	-72.5746	167.187	-70.0821	-57.4001	194.532	-81.1084	-97.2885	144.045	-65.0928	-91.3243	165.038	-77.477	-80.3737	189.738	-86.1678	-117.149	138.674	-70.7943	-109.252	154.764	-79.8048	-101.676	177.206	-84.8506	-123.461	111.25	-40.0548	-138.124	91.6413	-24.0541	-101.581	96.1556	-16.3428	
146	1.21667	-80.6155	66.7637	-19.2528	-57.3634	76.1538	-27.3415	-32.66	86.8732	-24.6489	-16.643	100.033	-29.8541	-65.9778	132.176	-54.6288	-54.6723	147.292	-64.4951	-49.9932	174.989	-77.6554	-81.0852	140.557	-60.3379	-74.2946	160.152	-75.1862	-63.4021	184.168	-87.4933	-98.2435	140.251	-70.1088	-92.181	159.629	-82.4797	-86.1611	177.531	-92.0469	-117.698	129.205	-75.5807	-108.419	142.622	-83.2067	-101.05	166.456	-87.3706	-121.941	106.107	-38.4984	-134.505	89.7855	-20.4912	-101.26	94.2102	-16.7286	
147	1.225	-79.0918	62.6188	-18.9959	-55.0068	69.4793	-23.8022	-35.9043	85.1566	-29.6176	-14.4574	93.2199	-26.9887	-62.4703	124.406	-54.2631	-54.2876	141.752	-67.9138	-49.3542	163.566	-79.661	-82.2165	135.984	-65.6553	-72.149	151.863	-77.7368	-61.7386	174.439	-91.633	-100.599	132.879	-72.4427	-89.6347	150.554	-84.6354	-83.3478	174.039	-97.1213	-118.845	125.417	-75.5299	-106.362	140.156	-84.8014	-100.967	162.912	-89.1874	-122.751	104.377	-41.2012	-133.783	81.4633	-18.3759	-97.2223	86.2571	-17.2407	
148	1.23333	-82.4806	53.8604	-15.9607	-58.4146	63.6816	-25.4705	-38.1211	76.1096	-30.0236	-16.6761	82.6938	-29.3453	-66.1178	115.355	-55.5389	-56.9674	133.61	-69.9923	-50.5083	156.248	-84.5898	-80.1218	126.314	-64.6632	-70.5623	144.854	-79.2614	-63.2873	169.096	-94.5246	-100.669	126.383	-75.1231	-90.1604	142.531	-84.9525	-77.9225	165.605	-95.4102	-118.164	115.953	-76.1382	-106.166	133.839	-84.541	-99.7619	157.093	-91.3003	-123.27	97.4134	-44.0697	-135.576	76.2314	-19.1489	-101.432	82.3508	-19.2576	
149	1.24167	-79.0371	50.4101	-19.3043	-52.3016	57.7522	-22.015	-30.0387	76.0514	-31.2591	-12.1773	86.3525	-34.6002	-61.6267	112.462	-64.7715	-56.6781	126.64	-76.8865	-46.7178	150.727	-91.521	-77.687	118.405	-69.283	-71.0889	138.082	-83.9106	-57.7327	164.587	-100.037	-95.3995	118.675	-76.929	-89.7288	137.408	-90.3514	-83.5452	157.393	-100.974	-117.069	107.543	-78.0583	-109.027	125.821	-90.2081	-97.3788	146.773	-103.633	-120.674	92.0446	-44.7082	-132.734	72.1642	-23.1177	-93.6505	76.1462	-21.0965	
150	1.25	-79.1501	47.776	-20.8261	-53.4854	53.5788	-29.8202	-32.8212	63.3151	-31.5052	-13.0352	71.7481	-33.2664	-66.4064	105.656	-62.0378	-53.6778	123.663	-76.2827	-52.5034	143.606	-92.0075	-82.7666	115.91	-72.2233	-73.1018	134.426	-88.5269	-62.6061	152.79	-100.47	-96.9077	113.252	-78.1517	-93.2384	129.441	-92.9673	-85.6362	149.529	-105.897	-121.849	102.593	-78.5999	-110.342	119.221	-92.0171	-102.643	141.52	-102.867	-123.282	81.759	-41.7753	-133.682	64.7248	-23.2004	-98.3392	72.5198	-19.0604	
